<svg xmlns="http://www.w3.org/2000/svg" xmlns:xlink="http://www.w3.org/1999/xlink" version="1.1" width="1000" height="1000" viewBox="0 0 1000 1000" xml:space="preserve">
<desc>Created with Fabric.js 3.5.0</desc>
<defs>
</defs>
<rect x="0" y="0" width="100%" height="100%" fill="rgba(255,255,255,0)"/>
<g transform="matrix(2.2827 0 0 2.2827 499.9979 541.9493)" id="892198">
<g style="" vector-effect="non-scaling-stroke">
		<g transform="matrix(1.7067 0 0 1.7067 0.0031 -12.2371)" id="coder-g">
<circle style="stroke: none; stroke-width: 1; stroke-dasharray: none; stroke-linecap: butt; stroke-dashoffset: 0; stroke-linejoin: miter; stroke-miterlimit: 4; is-custom-font: none; font-file-url: none; fill: rgb(234,234,234); fill-rule: nonzero; opacity: 1;" cx="0" cy="0" r="92"/>
</g>
		<g transform="matrix(1.7067 0 0 1.7067 -116.0521 -56.6121)" id="coder-g">
<path style="stroke: none; stroke-width: 1; stroke-dasharray: none; stroke-linecap: butt; stroke-dashoffset: 0; stroke-linejoin: miter; stroke-miterlimit: 4; is-custom-font: none; font-file-url: none; fill: rgb(255,255,255); fill-rule: nonzero; opacity: 1;" transform=" translate(-82, -116.828)" d="m 118 110.828 c 0 -19.882 -16.118 -36 -36 -36 s -36 16.118 -36 36 c 0 17.233 12.117 31.62 28.291 35.152 l 7.709 12.848 l 7.709 -12.848 c 16.174 -3.532 28.291 -17.918 28.291 -35.152 z" stroke-linecap="round"/>
</g>
		<g transform="matrix(1.7067 0 0 1.7067 -116.052 -56.6119)" id="coder-g">
<path style="stroke: none; stroke-width: 1; stroke-dasharray: none; stroke-linecap: butt; stroke-dashoffset: 0; stroke-linejoin: miter; stroke-miterlimit: 4; is-custom-font: none; font-file-url: none; fill: rgb(76,36,29); fill-rule: nonzero; opacity: 1;" transform=" translate(-82, -116.828)" d="m 82 162.828 c -1.404 0 -2.707 -0.736 -3.43 -1.941 l -6.848 -11.414 c -17.326 -4.608 -29.722 -20.582 -29.722 -38.645 c 0 -22.057 17.943 -40 40 -40 s 40 17.943 40 40 c 0 18.062 -12.396 34.037 -29.723 38.645 l -6.848 11.414 c -0.722 1.205 -2.025 1.941 -3.429 1.941 z m 0 -84 c -17.645 0 -32 14.355 -32 32 c 0 14.922 10.574 28.062 25.145 31.244 c 1.076 0.236 2.01 0.904 2.576 1.85 l 4.279 7.133 l 4.279 -7.133 c 0.566 -0.945 1.5 -1.613 2.576 -1.85 c 14.571 -3.181 25.145 -16.322 25.145 -31.244 c 0 -17.644 -14.356 -32 -32 -32 z" stroke-linecap="round"/>
</g>
		<g transform="matrix(1.7067 0 0 1.7067 102.4014 -15.6517)" id="coder-g">
<path style="stroke: none; stroke-width: 1; stroke-dasharray: none; stroke-linecap: butt; stroke-dashoffset: 0; stroke-linejoin: miter; stroke-miterlimit: 4; is-custom-font: none; font-file-url: none; fill: rgb(255,206,86); fill-rule: nonzero; opacity: 1;" transform=" translate(-210, -140.828)" d="m 195.548 86.828 h 28.904 c 16.319 0 29.548 14.206 29.548 31.73 v 76.27 h -65.634 c -12.352 0 -22.366 -10.753 -22.366 -24.018 v -52.252 c 0 -17.524 13.229 -31.73 29.548 -31.73 z" stroke-linecap="round"/>
</g>
		<g transform="matrix(1.7067 0 0 1.7067 102.4017 -15.6515)" id="coder-g">
<path style="stroke: none; stroke-width: 1; stroke-dasharray: none; stroke-linecap: butt; stroke-dashoffset: 0; stroke-linejoin: miter; stroke-miterlimit: 4; is-custom-font: none; font-file-url: none; fill: rgb(76,36,29); fill-rule: nonzero; opacity: 1;" transform=" translate(-210, -140.828)" d="m 254 198.828 h -65.635 c -14.537 0 -26.365 -12.568 -26.365 -28.018 v -52.252 c 0 -19.701 15.049 -35.73 33.547 -35.73 h 28.904 c 18.498 0 33.549 16.029 33.549 35.73 v 76.27 c 0 2.209 -1.791 4 -4 4 z m -58.453 -108 c -14.086 0 -25.547 12.439 -25.547 27.73 v 52.252 c 0 11.037 8.238 20.018 18.365 20.018 h 61.635 v -72.27 c 0 -15.291 -11.461 -27.73 -25.549 -27.73 z" stroke-linecap="round"/>
</g>
		<g transform="matrix(1.7067 0 0 1.7067 102.4018 131.1208)" id="coder-g">
<path style="stroke: none; stroke-width: 1; stroke-dasharray: none; stroke-linecap: butt; stroke-dashoffset: 0; stroke-linejoin: miter; stroke-miterlimit: 4; is-custom-font: none; font-file-url: none; fill: rgb(230,99,83); fill-rule: nonzero; opacity: 1;" transform=" translate(-210, -226.828)" d="m 158 258.828 v -41.677 c 0 -12.329 9.994 -22.323 22.323 -22.323 h 46.64 c 19.351 0 35.037 15.687 35.037 35.037 v 28.963" stroke-linecap="round"/>
</g>
		<g transform="matrix(1.7067 0 0 1.7067 102.4018 131.121)" id="coder-g">
<path style="stroke: none; stroke-width: 1; stroke-dasharray: none; stroke-linecap: butt; stroke-dashoffset: 0; stroke-linejoin: miter; stroke-miterlimit: 4; is-custom-font: none; font-file-url: none; fill: rgb(76,36,29); fill-rule: nonzero; opacity: 1;" transform=" translate(-210, -226.828)" d="m 262 262.828 c -2.209 0 -4 -1.791 -4 -4 v -28.963 c 0 -17.113 -13.924 -31.037 -31.037 -31.037 h -46.641 c -10.104 0 -18.322 8.219 -18.322 18.322 v 41.678 c 0 2.209 -1.791 4 -4 4 s -4 -1.791 -4 -4 v -41.678 c 0 -14.514 11.809 -26.322 26.322 -26.322 h 46.641 c 21.525 0 39.037 17.512 39.037 39.037 v 28.963 c 0 2.209 -1.791 4 -4 4 z" stroke-linecap="round"/>
</g>
		<g transform="matrix(1.7067 0 0 1.7067 85.3345 -1.9991)" id="coder-g">
<path style="stroke: none; stroke-width: 1; stroke-dasharray: none; stroke-linecap: butt; stroke-dashoffset: 0; stroke-linejoin: miter; stroke-miterlimit: 4; is-custom-font: none; font-file-url: none; fill: rgb(255,222,213); fill-rule: nonzero; opacity: 1;" transform=" translate(-200, -148.828)" d="m 200 178.828 c 18.778 0 34 -13.431 34 -30 v -30 h -68 v 30 c 0 16.569 15.222 30 34 30 z" stroke-linecap="round"/>
</g>
		<g transform="matrix(1.7067 0 0 1.7067 85.3347 -1.999)" id="coder-g">
<path style="stroke: none; stroke-width: 1; stroke-dasharray: none; stroke-linecap: butt; stroke-dashoffset: 0; stroke-linejoin: miter; stroke-miterlimit: 4; is-custom-font: none; font-file-url: none; fill: rgb(76,36,29); fill-rule: nonzero; opacity: 1;" transform=" translate(-200, -148.828)" d="m 200 182.828 c -20.953 0 -38 -15.252 -38 -34 v -30 c 0 -2.209 1.791 -4 4 -4 h 68 c 2.209 0 4 1.791 4 4 v 30 c 0 18.748 -17.047 34 -38 34 z m -30 -60 v 26 c 0 14.336 13.457 26 30 26 s 30 -11.664 30 -26 v -26 z" stroke-linecap="round"/>
</g>
		<g transform="matrix(1.7067 0 0 1.7067 75.0936 18.4798)" id="coder-g">
<path style="stroke: none; stroke-width: 1; stroke-dasharray: none; stroke-linecap: butt; stroke-dashoffset: 0; stroke-linejoin: miter; stroke-miterlimit: 4; is-custom-font: none; font-file-url: none; fill: rgb(255,222,213); fill-rule: nonzero; opacity: 1;" transform=" translate(-194, -160.828)" d="m 202 158.828 c -1.836 2.416 -4.72 4 -8 4 c -3.279 0 -6.164 -1.584 -8 -4 z" stroke-linecap="round"/>
</g>
		<g transform="matrix(1.7067 0 0 1.7067 75.0938 18.4801)" id="coder-g">
<path style="stroke: none; stroke-width: 1; stroke-dasharray: none; stroke-linecap: butt; stroke-dashoffset: 0; stroke-linejoin: miter; stroke-miterlimit: 4; is-custom-font: none; font-file-url: none; fill: rgb(76,36,29); fill-rule: nonzero; opacity: 1;" transform=" translate(-194, -160.828)" d="m 194 166.828 c -4.414 0 -8.49 -2.033 -11.186 -5.58 c -0.918 -1.209 -1.072 -2.836 -0.398 -4.197 c 0.676 -1.361 2.064 -2.223 3.584 -2.223 h 16 c 1.52 0 2.908 0.861 3.584 2.223 c 0.674 1.361 0.52 2.988 -0.398 4.197 c -2.696 3.547 -6.772 5.58 -11.186 5.58 z" stroke-linecap="round"/>
</g>
		<g transform="matrix(1.7067 0 0 1.7067 85.334 79.9205)" id="coder-g">
<path style="stroke: none; stroke-width: 1; stroke-dasharray: none; stroke-linecap: butt; stroke-dashoffset: 0; stroke-linejoin: miter; stroke-miterlimit: 4; is-custom-font: none; font-file-url: none; fill: rgb(255,222,213); fill-rule: nonzero; opacity: 1;" transform=" translate(-200, -196.828)" d="m 190 194.828 v -16 h 20 v 16 h 8 v 2 c 0 9.941 -8.059 18 -18 18 s -18 -8.059 -18 -18 v -2 z" stroke-linecap="round"/>
</g>
		<g transform="matrix(1.7067 0 0 1.7067 85.3341 79.9205)" id="coder-g">
<path style="stroke: none; stroke-width: 1; stroke-dasharray: none; stroke-linecap: butt; stroke-dashoffset: 0; stroke-linejoin: miter; stroke-miterlimit: 4; is-custom-font: none; font-file-url: none; fill: rgb(76,36,29); fill-rule: nonzero; opacity: 1;" transform=" translate(-200, -196.828)" d="m 200 218.828 c -12.131 0 -22 -9.869 -22 -22 v -2 c 0 -2.209 1.791 -4 4 -4 h 4 v -12 c 0 -2.209 1.791 -4 4 -4 h 20 c 2.209 0 4 1.791 4 4 v 12 h 4 c 2.209 0 4 1.791 4 4 v 2 c 0 12.131 -9.869 22 -22 22 z m -13.858 -20 c 0.973 6.775 6.816 12 13.857 12 s 12.885 -5.225 13.857 -12 h -3.856 c -2.209 0 -4 -1.791 -4 -4 v -12 h -12 v 12 c 0 2.209 -1.791 4 -4 4 z" stroke-linecap="round"/>
</g>
		<g transform="matrix(1.7067 0 0 1.7067 68.2669 -60.0266)" id="coder-g">
<path style="stroke: none; stroke-width: 1; stroke-dasharray: none; stroke-linecap: butt; stroke-dashoffset: 0; stroke-linejoin: miter; stroke-miterlimit: 4; is-custom-font: none; font-file-url: none; fill: rgb(76,36,29); fill-rule: nonzero; opacity: 1;" transform=" translate(-190, -114.828)" d="m 190 122.828 c -2.209 0 -4 -1.791 -4 -4 v -8 c 0 -2.209 1.791 -4 4 -4 s 4 1.791 4 4 v 8 c 0 2.209 -1.791 4 -4 4 z" stroke-linecap="round"/>
</g>
		<g transform="matrix(1.7067 0 0 1.7067 102.4001 -19.0667)" id="coder-g">
<circle style="stroke: none; stroke-width: 1; stroke-dasharray: none; stroke-linecap: butt; stroke-dashoffset: 0; stroke-linejoin: miter; stroke-miterlimit: 4; is-custom-font: none; font-file-url: none; fill: rgb(76,36,29); fill-rule: nonzero; opacity: 1;" cx="0" cy="0" r="4"/>
</g>
		<g transform="matrix(1.7067 0 0 1.7067 47.7868 -19.0667)" id="coder-g">
<circle style="stroke: none; stroke-width: 1; stroke-dasharray: none; stroke-linecap: butt; stroke-dashoffset: 0; stroke-linejoin: miter; stroke-miterlimit: 4; is-custom-font: none; font-file-url: none; fill: rgb(76,36,29); fill-rule: nonzero; opacity: 1;" cx="0" cy="0" r="4"/>
</g>
		<g transform="matrix(1.7067 0 0 1.7067 143.3602 165.2536)" id="coder-g">
<path style="stroke: none; stroke-width: 1; stroke-dasharray: none; stroke-linecap: butt; stroke-dashoffset: 0; stroke-linejoin: miter; stroke-miterlimit: 4; is-custom-font: none; font-file-url: none; fill: rgb(76,36,29); fill-rule: nonzero; opacity: 1;" transform=" translate(-234, -246.828)" d="m 234 262.828 c -2.209 0 -4 -1.791 -4 -4 v -24 c 0 -2.209 1.791 -4 4 -4 s 4 1.791 4 4 v 24 c 0 2.209 -1.791 4 -4 4 z" stroke-linecap="round"/>
</g>
		<g transform="matrix(1.7067 0 0 1.7067 40.9601 165.2536)" id="coder-g">
<path style="stroke: none; stroke-width: 1; stroke-dasharray: none; stroke-linecap: butt; stroke-dashoffset: 0; stroke-linejoin: miter; stroke-miterlimit: 4; is-custom-font: none; font-file-url: none; fill: rgb(76,36,29); fill-rule: nonzero; opacity: 1;" transform=" translate(-174, -246.828)" d="m 174 262.828 c -2.209 0 -4 -1.791 -4 -4 v -24 c 0 -2.209 1.791 -4 4 -4 s 4 1.791 4 4 v 24 c 0 2.209 -1.791 4 -4 4 z" stroke-linecap="round"/>
</g>
		<g transform="matrix(1.7067 0 0 1.7067 37.547 -176.0795)" id="coder-g">
<path style="stroke: none; stroke-width: 1; stroke-dasharray: none; stroke-linecap: butt; stroke-dashoffset: 0; stroke-linejoin: miter; stroke-miterlimit: 4; is-custom-font: none; font-file-url: none; fill: rgb(76,36,29); fill-rule: nonzero; opacity: 1;" transform=" translate(-172, -46.8283)" d="m 166.344 56.484 c -1.023 0 -2.047 -0.391 -2.828 -1.172 c -1.562 -1.562 -1.562 -4.094 0 -5.656 l 11.312 -11.312 c 1.562 -1.562 4.094 -1.562 5.656 0 s 1.562 4.094 0 5.656 l -11.312 11.312 c -0.782 0.782 -1.805 1.172 -2.828 1.172 z" stroke-linecap="round"/>
</g>
		<g transform="matrix(1.7067 0 0 1.7067 37.5453 -176.0795)" id="coder-g">
<path style="stroke: none; stroke-width: 1; stroke-dasharray: none; stroke-linecap: butt; stroke-dashoffset: 0; stroke-linejoin: miter; stroke-miterlimit: 4; is-custom-font: none; font-file-url: none; fill: rgb(76,36,29); fill-rule: nonzero; opacity: 1;" transform=" translate(-171.999, -46.8283)" d="m 177.656 56.484 c -1.023 0 -2.047 -0.391 -2.828 -1.172 l -11.313 -11.312 c -1.562 -1.562 -1.562 -4.094 0 -5.656 s 4.094 -1.562 5.656 0 l 11.312 11.312 c 1.562 1.562 1.562 4.094 0 5.656 c -0.78 0.782 -1.803 1.172 -2.827 1.172 z" stroke-linecap="round"/>
</g>
		<g transform="matrix(1.7067 0 0 1.7067 116.0535 -152.1867)" id="coder-g">
<circle style="stroke: none; stroke-width: 1; stroke-dasharray: none; stroke-linecap: butt; stroke-dashoffset: 0; stroke-linejoin: miter; stroke-miterlimit: 4; is-custom-font: none; font-file-url: none; fill: rgb(76,36,29); fill-rule: nonzero; opacity: 1;" cx="0" cy="0" r="4.529"/>
</g>
		<g transform="matrix(1.7067 0 0 1.7067 0.0002 -124.88)" id="coder-g">
<circle style="stroke: none; stroke-width: 1; stroke-dasharray: none; stroke-linecap: butt; stroke-dashoffset: 0; stroke-linejoin: miter; stroke-miterlimit: 4; is-custom-font: none; font-file-url: none; fill: rgb(76,36,29); fill-rule: nonzero; opacity: 1;" cx="0" cy="0" r="4.529"/>
</g>
		<g transform="matrix(1.7067 0 0 1.7067 47.7868 175.4933)" id="coder-g">
<path style="stroke: none; stroke-width: 1; stroke-dasharray: none; stroke-linecap: butt; stroke-dashoffset: 0; stroke-linejoin: miter; stroke-miterlimit: 4; is-custom-font: none; font-file-url: none; fill: rgb(107,79,91); fill-rule: nonzero; opacity: 1;" transform=" translate(-177.9995, -252.828)" d="m 197.999 258.828 h -47.999 v -12 h 55.999 z" stroke-linecap="round"/>
</g>
		<g transform="matrix(1.7067 0 0 1.7067 47.7874 175.4935)" id="coder-g">
<path style="stroke: none; stroke-width: 1; stroke-dasharray: none; stroke-linecap: butt; stroke-dashoffset: 0; stroke-linejoin: miter; stroke-miterlimit: 4; is-custom-font: none; font-file-url: none; fill: rgb(76,36,29); fill-rule: nonzero; opacity: 1;" transform=" translate(-177.9998, -252.828)" d="m 198 262.828 h -48 c -2.209 0 -4 -1.791 -4 -4 v -12 c 0 -2.209 1.791 -4 4 -4 h 56 c 1.475 0 2.83 0.812 3.527 2.113 c 0.695 1.301 0.619 2.879 -0.199 4.105 l -8 12 c -0.742 1.114 -1.99 1.782 -3.328 1.782 z m -44 -8 h 41.859 l 2.666 -4 h -44.525 z" stroke-linecap="round"/>
</g>
		<g transform="matrix(1.7067 0 0 1.7067 -102.3978 110.6412)" id="coder-g">
<path style="stroke: none; stroke-width: 1; stroke-dasharray: none; stroke-linecap: butt; stroke-dashoffset: 0; stroke-linejoin: miter; stroke-miterlimit: 4; is-custom-font: none; font-file-url: none; fill: rgb(107,79,91); fill-rule: nonzero; opacity: 1;" transform=" translate(-90, -214.828)" d="m 38 258.828 h 116 l -12 -88 h -116 z" stroke-linecap="round"/>
</g>
		<g transform="matrix(1.7067 0 0 1.7067 -102.3978 110.6415)" id="coder-g">
<path style="stroke: none; stroke-width: 1; stroke-dasharray: none; stroke-linecap: butt; stroke-dashoffset: 0; stroke-linejoin: miter; stroke-miterlimit: 4; is-custom-font: none; font-file-url: none; fill: rgb(76,36,29); fill-rule: nonzero; opacity: 1;" transform=" translate(-90, -214.828)" d="m 154 262.828 h -116 c -2 0 -3.693 -1.479 -3.963 -3.459 l -12 -88 c -0.156 -1.145 0.189 -2.301 0.949 -3.172 c 0.76 -0.869 1.859 -1.369 3.014 -1.369 h 116 c 2 0 3.693 1.479 3.963 3.459 l 12 88 c 0.156 1.145 -0.189 2.301 -0.949 3.172 c -0.76 0.869 -1.86 1.369 -3.014 1.369 z m -112.508 -8 h 107.926 l -10.91 -80 h -107.926 z" stroke-linecap="round"/>
</g>
		<g transform="matrix(1.7067 0 0 1.7067 -102.3997 110.6401)" id="coder-g">
<circle style="stroke: none; stroke-width: 1; stroke-dasharray: none; stroke-linecap: butt; stroke-dashoffset: 0; stroke-linejoin: miter; stroke-miterlimit: 4; is-custom-font: none; font-file-url: none; fill: rgb(181,161,156); fill-rule: nonzero; opacity: 1;" cx="0" cy="0" r="8"/>
</g>
		<g transform="matrix(1.7067 0 0 1.7067 -102.3996 110.6403)" id="coder-g">
<path style="stroke: none; stroke-width: 1; stroke-dasharray: none; stroke-linecap: butt; stroke-dashoffset: 0; stroke-linejoin: miter; stroke-miterlimit: 4; is-custom-font: none; font-file-url: none; fill: rgb(76,36,29); fill-rule: nonzero; opacity: 1;" transform=" translate(-90, -214.828)" d="m 90 226.828 c -6.617 0 -12 -5.383 -12 -12 s 5.383 -12 12 -12 s 12 5.383 12 12 s -5.383 12 -12 12 z m 0 -16 c -2.205 0 -4 1.795 -4 4 s 1.795 4 4 4 s 4 -1.795 4 -4 s -1.795 -4 -4 -4 z" stroke-linecap="round"/>
</g>
		<g transform="matrix(1.7067 0 0 1.7067 122.8819 185.7332)" id="coder-g">
<path style="stroke: none; stroke-width: 1; stroke-dasharray: none; stroke-linecap: butt; stroke-dashoffset: 0; stroke-linejoin: miter; stroke-miterlimit: 4; is-custom-font: none; font-file-url: none; fill: rgb(76,36,29); fill-rule: nonzero; opacity: 1;" transform=" translate(-222, -258.828)" d="m 274 262.828 h -104 c -2.209 0 -4 -1.791 -4 -4 s 1.791 -4 4 -4 h 104 c 2.209 0 4 1.791 4 4 s -1.791 4 -4 4 z" stroke-linecap="round"/>
</g>
		<g transform="matrix(1.7067 0 0 1.7067 -85.3331 -66.8552)" id="coder-g">
<path style="stroke: none; stroke-width: 1; stroke-dasharray: none; stroke-linecap: butt; stroke-dashoffset: 0; stroke-linejoin: miter; stroke-miterlimit: 4; is-custom-font: none; font-file-url: none; fill: rgb(76,36,29); fill-rule: nonzero; opacity: 1;" transform=" translate(-99.9999, -110.8268)" d="m 94.004 122.828 c -1.293 0 -2.561 -0.625 -3.332 -1.781 c -1.225 -1.838 -0.729 -4.322 1.109 -5.547 l 7.008 -4.672 l -7.008 -4.672 c -1.838 -1.225 -2.334 -3.709 -1.109 -5.547 c 1.223 -1.84 3.707 -2.338 5.547 -1.109 l 12 8 c 1.113 0.742 1.781 1.99 1.781 3.328 s -0.668 2.586 -1.781 3.328 l -12 8 c -0.682 0.455 -1.454 0.672 -2.215 0.672 z" stroke-linecap="round"/>
</g>
		<g transform="matrix(1.7067 0 0 1.7067 -146.7728 -66.855)" id="coder-g">
<path style="stroke: none; stroke-width: 1; stroke-dasharray: none; stroke-linecap: butt; stroke-dashoffset: 0; stroke-linejoin: miter; stroke-miterlimit: 4; is-custom-font: none; font-file-url: none; fill: rgb(76,36,29); fill-rule: nonzero; opacity: 1;" transform=" translate(-64.0001, -110.8269)" d="m 69.996 122.828 c -0.762 0 -1.533 -0.217 -2.215 -0.672 l -12 -8 c -1.113 -0.742 -1.781 -1.99 -1.781 -3.328 s 0.668 -2.586 1.781 -3.328 l 12 -8 c 1.836 -1.229 4.318 -0.73 5.547 1.109 c 1.225 1.838 0.729 4.322 -1.109 5.547 l -7.008 4.672 l 7.008 4.672 c 1.838 1.225 2.334 3.709 1.109 5.547 c -0.772 1.156 -2.039 1.781 -3.332 1.781 z" stroke-linecap="round"/>
</g>
		<g transform="matrix(1.7067 0 0 1.7067 -116.0531 -66.854)" id="coder-g">
<path style="stroke: none; stroke-width: 1; stroke-dasharray: none; stroke-linecap: butt; stroke-dashoffset: 0; stroke-linejoin: miter; stroke-miterlimit: 4; is-custom-font: none; font-file-url: none; fill: rgb(76,36,29); fill-rule: nonzero; opacity: 1;" transform=" translate(-82, -110.8273)" d="m 78.004 134.828 c -0.26 0 -0.523 -0.025 -0.789 -0.078 c -2.166 -0.434 -3.57 -2.541 -3.137 -4.707 l 8 -40 c 0.43 -2.164 2.535 -3.574 4.707 -3.137 c 2.166 0.434 3.57 2.541 3.137 4.707 l -8 40 c -0.379 1.901 -2.051 3.215 -3.918 3.215 z" stroke-linecap="round"/>
</g>
</g>
</g>
</svg>